<?xml version="1.0" standalone="no"?>
<!DOCTYPE svg PUBLIC "-//W3C//DTD SVG 20010904//EN"
 "http://www.w3.org/TR/2001/REC-SVG-20010904/DTD/svg10.dtd">
<svg version="1.0" xmlns="http://www.w3.org/2000/svg"
 width="609.000000pt" height="610.000000pt" viewBox="0 0 609.000000 610.000000"
 preserveAspectRatio="xMidYMid meet">

<g transform="translate(0.000000,610.000000) scale(0.100000,-0.100000)"
fill="#000000" stroke="none">
<path d="M1634 5724 c-354 -59 -648 -262 -842 -581 -90 -148 -142 -311 -162
-503 -7 -71 -9 -536 -7 -1420 3 -1200 5 -1322 21 -1400 22 -111 76 -270 120
-358 79 -158 261 -354 404 -437 45 -26 87 -54 95 -63 8 -10 32 -57 55 -107 78
-175 205 -440 224 -467 18 -26 21 -27 46 -14 15 8 117 88 227 178 110 90 227
184 260 209 33 26 73 59 88 73 l28 26 1107 3 c1225 3 1134 -2 1346 69 229 76
420 224 566 438 92 135 164 342 190 540 8 59 10 489 7 1430 l-5 1345 -32 124
c-113 437 -385 734 -795 870 -191 63 -149 61 -1569 60 -1036 -1 -1307 -4
-1372 -15z m1726 -358 c190 -35 414 -110 560 -188 200 -106 408 -268 532 -413
350 -408 530 -934 488 -1425 -19 -223 -53 -371 -131 -565 -174 -437 -513 -820
-896 -1014 -81 -40 -302 -116 -428 -146 -382 -90 -766 -61 -1120 85 -29 12
-39 7 -245 -105 -118 -65 -260 -144 -315 -175 -55 -32 -138 -77 -185 -101 -83
-43 -88 -44 -180 -44 -79 0 -102 4 -136 22 -85 45 -149 158 -142 246 4 46 208
697 257 820 l19 47 -34 58 c-95 157 -218 460 -248 607 -45 226 -53 523 -18
725 48 281 155 543 315 770 230 325 507 543 872 686 124 48 359 106 500 123
111 14 431 6 535 -13z m1459 -96 c119 -60 142 -200 50 -303 -49 -57 -83 -71
-159 -65 -102 7 -179 76 -188 167 -8 91 38 170 123 207 45 20 130 17 174 -6z"/>
<path d="M2850 5184 c-184 -25 -407 -89 -570 -165 -101 -48 -277 -164 -377
-249 -236 -201 -430 -505 -518 -810 -47 -163 -65 -298 -65 -486 0 -293 53
-510 186 -770 50 -98 124 -217 142 -228 5 -3 -6 -61 -25 -128 -38 -138 -183
-600 -219 -696 -42 -111 -27 -172 44 -172 30 0 287 127 360 178 33 23 235 137
390 220 l113 60 74 -34 c256 -118 650 -163 957 -109 210 37 464 137 632 249
155 104 337 287 458 461 254 365 355 803 284 1228 -32 187 -81 339 -167 512
-90 184 -175 301 -334 461 -140 140 -309 265 -450 329 -98 46 -306 112 -411
130 -87 16 -430 28 -504 19z m351 -174 c127 -13 201 -30 344 -76 131 -43 209
-81 330 -162 177 -117 312 -252 432 -435 191 -289 276 -600 260 -952 -15 -325
-136 -629 -357 -900 -266 -325 -668 -521 -1111 -542 -241 -11 -467 33 -686
133 -68 31 -129 54 -137 51 -8 -3 -61 -36 -118 -73 -144 -94 -512 -314 -525
-314 -11 0 11 80 68 254 33 99 73 241 88 315 16 75 36 153 44 174 l16 37 -46
52 c-131 148 -253 420 -295 658 -17 98 -17 434 1 515 83 387 252 674 536 915
220 185 491 304 775 339 184 23 243 25 381 11z"/>
<path d="M3278 4350 c-76 -14 -120 -67 -121 -149 -1 -76 23 -110 171 -237 151
-130 435 -413 458 -457 10 -19 12 -32 5 -45 -13 -22 -391 -391 -568 -554 -59
-53 -78 -100 -69 -165 8 -59 30 -95 79 -127 80 -52 176 -30 254 57 26 28 194
198 373 378 299 298 328 329 338 372 19 75 0 140 -55 191 -74 67 -497 492
-605 608 -55 58 -112 111 -127 116 -38 15 -91 20 -133 12z"/>
<path d="M2162 3979 c-28 -11 -61 -53 -68 -86 -5 -25 0 -37 26 -67 l32 -36
428 0 c240 0 439 4 453 9 14 5 35 24 47 41 19 27 22 38 14 68 -18 71 -16 71
-492 74 -233 2 -431 0 -440 -3z"/>
<path d="M2618 3600 c-707 -5 -717 -5 -745 -26 -60 -45 -64 -101 -11 -154 l30
-30 631 -2 c987 -3 1027 -2 1057 20 34 26 39 90 10 136 -31 51 -73 66 -172 64
-45 -2 -406 -5 -800 -8z"/>
<path d="M2162 3209 c-24 -9 -72 -66 -72 -85 0 -31 32 -76 63 -87 23 -9 147
-11 460 -7 l429 5 29 33 c16 18 29 43 29 56 0 28 -40 73 -72 80 -36 8 -846 12
-866 5z"/>
<path d="M5155 960 c-3 -5 -56 -43 -118 -83 -152 -99 -312 -163 -538 -213
-111 -25 -384 -30 -1354 -26 l-870 3 -40 -38 c-22 -21 -60 -55 -85 -77 -35
-30 -38 -33 -10 -15 19 13 49 36 65 51 23 22 36 27 58 22 15 -3 34 -1 41 5 8
7 23 7 46 1 19 -5 36 -8 38 -5 3 3 12 -1 20 -8 10 -7 13 -8 9 -1 -4 8 1 12 16
12 42 -1 471 12 640 19 132 5 171 3 177 -7 11 -17 140 -19 260 -3 63 8 98 9
106 2 8 -6 14 -6 18 0 3 5 1 11 -6 13 -7 3 46 3 117 1 72 -2 174 -5 227 -6 54
-1 98 -5 98 -9 0 -5 10 -8 23 -8 18 0 19 2 7 10 -10 7 6 10 55 10 49 0 65 -3
55 -10 -20 -13 -10 -13 120 5 61 9 120 13 131 10 13 -4 28 1 44 17 18 17 35
23 72 23 33 0 47 4 45 13 -1 6 5 12 13 12 8 0 15 -6 15 -12 1 -8 6 -6 14 5 8
10 16 14 17 8 5 -12 71 0 69 13 -2 13 22 26 48 26 13 0 21 4 18 8 -2 4 4 13
14 20 16 10 18 9 13 -4 -5 -14 -2 -14 23 2 16 10 33 24 37 31 5 8 12 11 18 8
5 -4 9 -2 9 2 0 12 56 44 64 36 3 -3 6 -1 6 5 0 6 24 24 53 41 46 26 131 101
115 101 -4 0 -10 -4 -13 -10z m-665 -330 c0 -5 -2 -10 -4 -10 -3 0 -8 5 -11
10 -3 6 -1 10 4 10 6 0 11 -4 11 -10z"/>
</g>
</svg>
